<mxfile host="app.diagrams.net" modified="2022-05-20T22:01:55.596Z" agent="5.0 (Windows NT 10.0; Win64; x64) AppleWebKit/537.36 (KHTML, like Gecko) Chrome/101.0.4951.54 Safari/537.36" etag="21nAl-wkQyulb8b2xzvU" version="18.0.3" type="github">
  <diagram id="Pol59vIPiDtweRrByoVx" name="Page-1">
    <mxGraphModel dx="1185" dy="582" grid="1" gridSize="10" guides="1" tooltips="1" connect="1" arrows="1" fold="1" page="1" pageScale="1" pageWidth="827" pageHeight="1169" math="0" shadow="0">
      <root>
        <mxCell id="0" />
        <mxCell id="1" parent="0" />
        <mxCell id="_w2x4ip9938zVj9qqIx7-1" style="edgeStyle=orthogonalEdgeStyle;rounded=0;orthogonalLoop=1;jettySize=auto;html=1;exitX=0.5;exitY=1;exitDx=0;exitDy=0;entryX=0.5;entryY=0;entryDx=0;entryDy=0;fontSize=29;fillColor=#dae8fc;strokeColor=#6c8ebf;" parent="1" source="_w2x4ip9938zVj9qqIx7-2" target="_w2x4ip9938zVj9qqIx7-4" edge="1">
          <mxGeometry relative="1" as="geometry" />
        </mxCell>
        <mxCell id="_w2x4ip9938zVj9qqIx7-2" value="&lt;p style=&quot;line-height: normal; margin: 0pt 0in; text-indent: 0in; direction: ltr; unicode-bidi: embed; vertical-align: baseline; word-break: normal;&quot;&gt;&lt;span style=&quot;font-size: 22pt; font-family: Arial; font-variant-numeric: normal; font-variant-east-asian: normal; color: rgb(23, 55, 94); font-weight: bold;&quot;&gt;dc=org&lt;/span&gt;&lt;/p&gt;" style="rounded=1;whiteSpace=wrap;html=1;fillColor=#dae8fc;strokeColor=#6c8ebf;" parent="1" vertex="1">
          <mxGeometry x="320" y="40" width="120" height="40" as="geometry" />
        </mxCell>
        <mxCell id="_w2x4ip9938zVj9qqIx7-3" style="edgeStyle=orthogonalEdgeStyle;rounded=0;orthogonalLoop=1;jettySize=auto;html=1;exitX=0.5;exitY=1;exitDx=0;exitDy=0;entryX=0.5;entryY=0;entryDx=0;entryDy=0;fontSize=29;fillColor=#dae8fc;strokeColor=#6c8ebf;" parent="1" source="_w2x4ip9938zVj9qqIx7-4" target="_w2x4ip9938zVj9qqIx7-7" edge="1">
          <mxGeometry relative="1" as="geometry" />
        </mxCell>
        <mxCell id="_w2x4ip9938zVj9qqIx7-4" value="&lt;p style=&quot;line-height: normal; margin: 0pt 0in; text-indent: 0in; direction: ltr; unicode-bidi: embed; vertical-align: baseline; word-break: normal;&quot;&gt;&lt;span style=&quot;font-size: 22pt; font-family: Arial; font-variant-numeric: normal; font-variant-east-asian: normal; color: rgb(23, 55, 94); font-weight: bold;&quot;&gt;d&lt;/span&gt;&lt;span style=&quot;font-size: 22pt; font-family: Arial; font-variant-numeric: normal; font-variant-east-asian: normal; color: rgb(23, 55, 94); font-weight: bold; vertical-align: baseline;&quot;&gt;c=imslab&lt;/span&gt;&lt;/p&gt;" style="rounded=1;whiteSpace=wrap;html=1;fillColor=#dae8fc;strokeColor=#6c8ebf;" parent="1" vertex="1">
          <mxGeometry x="300" y="100" width="160" height="40" as="geometry" />
        </mxCell>
        <mxCell id="_w2x4ip9938zVj9qqIx7-5" style="edgeStyle=orthogonalEdgeStyle;rounded=0;orthogonalLoop=1;jettySize=auto;html=1;exitX=0.25;exitY=1;exitDx=0;exitDy=0;entryX=0.5;entryY=0;entryDx=0;entryDy=0;fontSize=29;" parent="1" source="_w2x4ip9938zVj9qqIx7-7" target="_w2x4ip9938zVj9qqIx7-10" edge="1">
          <mxGeometry relative="1" as="geometry" />
        </mxCell>
        <mxCell id="_w2x4ip9938zVj9qqIx7-6" style="edgeStyle=orthogonalEdgeStyle;rounded=0;orthogonalLoop=1;jettySize=auto;html=1;exitX=0.75;exitY=1;exitDx=0;exitDy=0;entryX=0.5;entryY=0;entryDx=0;entryDy=0;fontSize=29;" parent="1" source="_w2x4ip9938zVj9qqIx7-7" target="_w2x4ip9938zVj9qqIx7-13" edge="1">
          <mxGeometry relative="1" as="geometry" />
        </mxCell>
        <mxCell id="_w2x4ip9938zVj9qqIx7-7" value="&lt;p style=&quot;line-height: normal; margin: 0pt 0in; text-indent: 0in; direction: ltr; unicode-bidi: embed; vertical-align: baseline; word-break: normal;&quot;&gt;&lt;span style=&quot;font-size: 22pt; font-family: Arial; font-variant-numeric: normal; font-variant-east-asian: normal; color: rgb(23, 55, 94); font-weight: bold;&quot;&gt;dc=&lt;/span&gt;&lt;span style=&quot;font-size: 22pt; font-family: Arial; font-variant-numeric: normal; font-variant-east-asian: normal; color: rgb(23, 55, 94); font-weight: bold;&quot;&gt;nasa&lt;/span&gt;&lt;/p&gt;" style="rounded=1;whiteSpace=wrap;html=1;fillColor=#dae8fc;strokeColor=#6c8ebf;" parent="1" vertex="1">
          <mxGeometry x="310" y="160" width="140" height="40" as="geometry" />
        </mxCell>
        <mxCell id="_w2x4ip9938zVj9qqIx7-8" style="edgeStyle=orthogonalEdgeStyle;rounded=0;orthogonalLoop=1;jettySize=auto;html=1;exitX=0.25;exitY=1;exitDx=0;exitDy=0;entryX=0.5;entryY=0;entryDx=0;entryDy=0;fontSize=29;" parent="1" source="_w2x4ip9938zVj9qqIx7-10" target="_w2x4ip9938zVj9qqIx7-14" edge="1">
          <mxGeometry relative="1" as="geometry" />
        </mxCell>
        <mxCell id="_w2x4ip9938zVj9qqIx7-9" style="edgeStyle=orthogonalEdgeStyle;rounded=0;orthogonalLoop=1;jettySize=auto;html=1;exitX=0.75;exitY=1;exitDx=0;exitDy=0;entryX=0.5;entryY=0;entryDx=0;entryDy=0;fontSize=29;" parent="1" source="_w2x4ip9938zVj9qqIx7-10" target="_w2x4ip9938zVj9qqIx7-15" edge="1">
          <mxGeometry relative="1" as="geometry" />
        </mxCell>
        <mxCell id="_w2x4ip9938zVj9qqIx7-10" value="&lt;p style=&quot;line-height: normal; margin: 0pt 0in; text-indent: 0in; direction: ltr; unicode-bidi: embed; vertical-align: baseline; word-break: normal;&quot;&gt;&lt;span style=&quot;font-size: 22pt; font-family: Arial; font-variant-numeric: normal; font-variant-east-asian: normal; color: rgb(23, 55, 94); font-weight: bold;&quot;&gt;o&lt;/span&gt;&lt;span style=&quot;font-size: 22pt; font-family: Arial; font-variant-numeric: normal; font-variant-east-asian: normal; color: rgb(23, 55, 94); font-weight: bold; vertical-align: baseline;&quot;&gt;u&lt;/span&gt;&lt;span style=&quot;font-size: 22pt; font-family: Arial; font-variant-numeric: normal; font-variant-east-asian: normal; color: rgb(23, 55, 94); font-weight: bold; vertical-align: baseline;&quot;&gt;=&lt;/span&gt;&lt;span style=&quot;font-size: 22pt; font-family: Arial; font-variant-numeric: normal; font-variant-east-asian: normal; color: rgb(23, 55, 94); font-weight: bold;&quot;&gt;Group&lt;/span&gt;&lt;/p&gt;" style="rounded=1;whiteSpace=wrap;html=1;fillColor=#f5f5f5;fontColor=#333333;strokeColor=#666666;" parent="1" vertex="1">
          <mxGeometry x="210" y="240" width="160" height="40" as="geometry" />
        </mxCell>
        <mxCell id="_w2x4ip9938zVj9qqIx7-11" style="edgeStyle=orthogonalEdgeStyle;rounded=0;orthogonalLoop=1;jettySize=auto;html=1;exitX=0.25;exitY=1;exitDx=0;exitDy=0;fontSize=29;" parent="1" source="_w2x4ip9938zVj9qqIx7-13" target="_w2x4ip9938zVj9qqIx7-16" edge="1">
          <mxGeometry relative="1" as="geometry" />
        </mxCell>
        <mxCell id="_w2x4ip9938zVj9qqIx7-12" style="edgeStyle=orthogonalEdgeStyle;rounded=0;orthogonalLoop=1;jettySize=auto;html=1;exitX=0.75;exitY=1;exitDx=0;exitDy=0;entryX=0.5;entryY=0;entryDx=0;entryDy=0;fontSize=29;" parent="1" source="_w2x4ip9938zVj9qqIx7-13" target="_w2x4ip9938zVj9qqIx7-17" edge="1">
          <mxGeometry relative="1" as="geometry" />
        </mxCell>
        <mxCell id="_w2x4ip9938zVj9qqIx7-13" value="&lt;p style=&quot;line-height: normal; margin: 0pt 0in; text-indent: 0in; direction: ltr; unicode-bidi: embed; vertical-align: baseline; word-break: normal;&quot;&gt;&lt;span style=&quot;font-size: 22pt; font-family: Arial; font-variant-numeric: normal; font-variant-east-asian: normal; color: rgb(23, 55, 94); font-weight: bold;&quot;&gt;o&lt;/span&gt;&lt;span style=&quot;font-size: 22pt; font-family: Arial; font-variant-numeric: normal; font-variant-east-asian: normal; color: rgb(23, 55, 94); font-weight: bold; vertical-align: baseline;&quot;&gt;u&lt;/span&gt;&lt;span style=&quot;font-size: 22pt; font-family: Arial; font-variant-numeric: normal; font-variant-east-asian: normal; color: rgb(23, 55, 94); font-weight: bold; vertical-align: baseline;&quot;&gt;=&lt;/span&gt;&lt;span style=&quot;font-size: 22pt; font-family: Arial; font-variant-numeric: normal; font-variant-east-asian: normal; color: rgb(23, 55, 94); font-weight: bold;&quot;&gt;People&lt;/span&gt;&lt;/p&gt;" style="rounded=1;whiteSpace=wrap;html=1;fillColor=#dae8fc;strokeColor=#6c8ebf;" parent="1" vertex="1">
          <mxGeometry x="390" y="240" width="160" height="40" as="geometry" />
        </mxCell>
        <mxCell id="_w2x4ip9938zVj9qqIx7-14" value="&lt;p style=&quot;line-height: normal; margin: 0pt 0in; text-indent: 0in; direction: ltr; unicode-bidi: embed; vertical-align: baseline; word-break: normal;&quot;&gt;&lt;span style=&quot;font-size: 22pt; font-family: Arial; font-variant-numeric: normal; font-variant-east-asian: normal; color: rgb(23, 55, 94); font-weight: bold;&quot;&gt;cn&lt;/span&gt;&lt;span style=&quot;font-size: 22pt; font-family: Arial; font-variant-numeric: normal; font-variant-east-asian: normal; color: rgb(23, 55, 94); font-weight: bold; vertical-align: baseline;&quot;&gt;=student&lt;/span&gt;&lt;/p&gt;" style="rounded=1;whiteSpace=wrap;html=1;fillColor=#f5f5f5;fontColor=#333333;strokeColor=#666666;" parent="1" vertex="1">
          <mxGeometry x="70" y="320" width="170" height="40" as="geometry" />
        </mxCell>
        <mxCell id="_w2x4ip9938zVj9qqIx7-15" value="&lt;p style=&quot;line-height: normal; margin: 0pt 0in; text-indent: 0in; direction: ltr; unicode-bidi: embed; vertical-align: baseline; word-break: normal;&quot;&gt;&lt;span style=&quot;font-size: 22pt; font-family: Arial; font-variant-numeric: normal; font-variant-east-asian: normal; color: rgb(23, 55, 94); font-weight: bold;&quot;&gt;cn&lt;/span&gt;&lt;span style=&quot;font-size: 22pt; font-family: Arial; font-variant-numeric: normal; font-variant-east-asian: normal; color: rgb(23, 55, 94); font-weight: bold; vertical-align: baseline;&quot;&gt;=ta&lt;/span&gt;&lt;/p&gt;" style="rounded=1;whiteSpace=wrap;html=1;fillColor=#f5f5f5;fontColor=#333333;strokeColor=#666666;" parent="1" vertex="1">
          <mxGeometry x="250" y="320" width="120" height="40" as="geometry" />
        </mxCell>
        <mxCell id="_w2x4ip9938zVj9qqIx7-16" value="&lt;p style=&quot;line-height: normal; margin: 0pt 0in; text-indent: 0in; direction: ltr; unicode-bidi: embed; vertical-align: baseline; word-break: normal;&quot;&gt;&lt;span style=&quot;font-size: 22pt; font-family: Arial; font-variant-numeric: normal; font-variant-east-asian: normal; color: rgb(23, 55, 94); font-weight: bold;&quot;&gt;cn&lt;/span&gt;&lt;span style=&quot;font-size: 22pt; font-family: Arial; font-variant-numeric: normal; font-variant-east-asian: normal; color: rgb(23, 55, 94); font-weight: bold; vertical-align: baseline;&quot;&gt;=&lt;/span&gt;&lt;span style=&quot;font-size: 22pt; font-family: Arial; font-variant-numeric: normal; font-variant-east-asian: normal; color: rgb(23, 55, 94); font-weight: bold; vertical-align: baseline;&quot;&gt;vinc&lt;/span&gt;&lt;/p&gt;" style="rounded=1;whiteSpace=wrap;html=1;fillColor=#f5f5f5;fontColor=#333333;strokeColor=#666666;" parent="1" vertex="1">
          <mxGeometry x="390" y="320" width="130" height="40" as="geometry" />
        </mxCell>
        <mxCell id="_w2x4ip9938zVj9qqIx7-17" value="&lt;p style=&quot;line-height: normal; margin: 0pt 0in; text-indent: 0in; direction: ltr; unicode-bidi: embed; vertical-align: baseline; word-break: normal;&quot;&gt;&lt;span style=&quot;font-size: 22pt; font-family: Arial; font-variant-numeric: normal; font-variant-east-asian: normal; color: rgb(23, 55, 94); font-weight: bold;&quot;&gt;cn&lt;/span&gt;&lt;span style=&quot;font-size: 22pt; font-family: Arial; font-variant-numeric: normal; font-variant-east-asian: normal; color: rgb(23, 55, 94); font-weight: bold; vertical-align: baseline;&quot;&gt;=&lt;/span&gt;&lt;span style=&quot;font-size: 22pt; font-family: Arial; font-variant-numeric: normal; font-variant-east-asian: normal; color: rgb(23, 55, 94); font-weight: bold; vertical-align: baseline;&quot;&gt;chmmy&lt;/span&gt;&lt;/p&gt;" style="rounded=1;whiteSpace=wrap;html=1;fillColor=#f5f5f5;fontColor=#333333;strokeColor=#666666;" parent="1" vertex="1">
          <mxGeometry x="540" y="320" width="160" height="40" as="geometry" />
        </mxCell>
        <mxCell id="_w2x4ip9938zVj9qqIx7-18" value="" style="rounded=0;whiteSpace=wrap;html=1;fillColor=none;strokeColor=#d79b00;strokeWidth=5;" parent="1" vertex="1">
          <mxGeometry x="287" y="20" width="186" height="190" as="geometry" />
        </mxCell>
      </root>
    </mxGraphModel>
  </diagram>
</mxfile>
